<svg width="500" height="500" viewBox="0 0 500 500" fill="none" xmlns="http://www.w3.org/2000/svg">
<path fill-rule="evenodd" clip-rule="evenodd" d="M400 100V100.008L370.008 130H370H250C183.726 130 130 183.726 130 250C130 316.274 183.726 370 250 370H297.484L327.484 340H250C200.294 340 160 299.706 160 250C160 200.294 200.294 160 250 160H340.008L310.008 190H250C216.863 190 190 216.863 190 250C190 283.137 216.863 310 250 310H363H370H400V310.004L370.004 340H370L340 370H340.004L310.004 400H250C167.157 400 100 332.843 100 250C100 167.157 167.157 100 250 100H400ZM399.352 205L400 204.352V205H399.352Z" fill="url(#paint0_linear_51_2)"/>
<defs>
<linearGradient id="paint0_linear_51_2" x1="100" y1="250" x2="400" y2="250" gradientUnits="userSpaceOnUse">
<stop stop-color="#6366F1"/>
<stop offset="1" stop-color="#C0BFF9"/>
</linearGradient>
</defs>
</svg>
